<?xml version="1.0" encoding="UTF-8"?><svg id="Layer_1" xmlns="http://www.w3.org/2000/svg" xmlns:xlink="http://www.w3.org/1999/xlink" viewBox="0 0 193.63 171.49"><defs><style>.cls-1{fill:url(#linear-gradient-2);}.cls-2{fill:url(#linear-gradient);}.cls-3{fill:#0e426b;}.cls-4{fill:#1f4384;}</style><linearGradient id="linear-gradient" x1="24.59" y1="89.85" x2="118.17" y2="-3.73" gradientUnits="userSpaceOnUse"><stop offset="0" stop-color="#057cb3"/><stop offset="1" stop-color="#5cc6cb"/></linearGradient><linearGradient id="linear-gradient-2" x1="47.28" y1="176.17" x2="140.86" y2="82.6" xlink:href="#linear-gradient"/></defs><polygon class="cls-3" points="57.87 84.53 104.19 123.13 104.19 84.53 57.87 45.93 57.87 84.53"/><polygon class="cls-3" points="181.39 80.67 181.39 157.86 142.79 157.86 142.79 161.72 185.25 161.72 185.25 157.86 185.25 80.67 181.39 80.67"/><polygon class="cls-4" points="142.79 157.86 142.79 84.53 104.19 84.53 99.56 80.67 146.65 80.67 146.65 84.53 146.65 157.86 142.79 157.86"/><polyline class="cls-3" points="101.1 49.79 62.5 49.79 57.87 45.93 142.79 45.93 142.79 49.79"/><path class="cls-2" d="M119.63,7.33H42.43c-12.79,0-23.16,10.37-23.16,23.16v54.04H57.87V45.93h84.92v-15.44c0-12.79-10.37-23.16-23.16-23.16Z"/><path class="cls-1" d="M104.19,84.53v38.6H19.27v15.44c0,12.79,10.37,23.16,23.16,23.16h100.36V84.53h-38.6Z"/></svg>